<?xml version="1.0" standalone="no"?>
<!DOCTYPE svg PUBLIC "-//W3C//DTD SVG 20010904//EN"
 "http://www.w3.org/TR/2001/REC-SVG-20010904/DTD/svg10.dtd">
<svg version="1.0" xmlns="http://www.w3.org/2000/svg"
 width="512.000000pt" height="512.000000pt" viewBox="0 0 512.000000 512.000000"
 preserveAspectRatio="xMidYMid meet">

<g transform="translate(0.000000,512.000000) scale(0.100000,-0.100000)"
fill="#000000" stroke="none">
<path d="M2500 4838 c-1 -110 -23 -408 -50 -678 -5 -52 -14 -142 -20 -200 -12
-128 -44 -402 -70 -605 -11 -82 -24 -187 -30 -232 -18 -138 -40 -237 -55 -253
-10 -9 -41 -16 -89 -18 -65 -4 -75 -2 -85 15 -11 22 -63 259 -80 368 -11 76
-53 415 -71 585 -6 58 -15 139 -20 180 -5 41 -15 135 -21 208 -6 73 -15 135
-20 138 -5 3 -9 4 -10 2 0 -2 -4 -55 -9 -118 -14 -169 -27 -283 -56 -495 -14
-104 -28 -206 -31 -225 -18 -138 -105 -645 -118 -687 -14 -48 -20 -54 -69 -78
-73 -35 -107 -37 -122 -5 -24 50 -98 355 -128 532 -9 47 -27 185 -41 305 -39
337 -37 323 -46 288 -4 -16 -12 -88 -18 -160 -5 -71 -19 -222 -31 -335 -11
-113 -27 -277 -35 -365 -9 -88 -22 -227 -30 -309 -21 -206 -20 -223 8 -231 73
-22 238 -105 328 -166 94 -63 267 -208 339 -285 161 -173 320 -400 406 -579
60 -125 84 -188 125 -330 53 -186 57 -200 69 -270 7 -38 16 -81 20 -95 5 -14
13 -61 20 -105 6 -44 16 -101 20 -126 5 -25 12 -95 15 -155 11 -180 17 -172
49 61 16 111 25 169 71 455 48 294 124 503 272 749 207 343 449 571 798 751
72 37 149 74 173 83 32 13 42 22 42 39 -1 36 -19 303 -30 423 -5 61 -14 166
-20 235 -5 69 -17 181 -25 250 -8 69 -24 201 -35 294 -20 170 -40 239 -40 139
0 -87 -29 -421 -45 -507 -29 -164 -128 -593 -140 -605 -7 -7 -172 49 -182 61
-5 7 -15 45 -22 83 -7 39 -17 86 -22 105 -8 34 -40 206 -73 395 -17 99 -79
582 -105 822 -9 83 -19 154 -23 158 -3 3 -9 -38 -12 -92 -9 -144 -35 -419 -46
-488 -5 -33 -23 -161 -40 -285 -17 -124 -35 -252 -40 -285 -5 -33 -17 -116
-26 -185 -9 -69 -21 -130 -26 -137 -9 -11 -40 -11 -155 3 -41 5 -42 5 -52 57
-5 29 -17 108 -26 177 -9 69 -20 159 -26 200 -31 237 -48 383 -54 440 -7 78
-39 381 -60 575 -14 124 -37 361 -52 528 -8 88 -23 78 -23 -15z"/>
</g>
</svg>
